<svg width="480px" height="360px" xmlns="http://www.w3.org/2000/svg"><rect x="216" y="124" width="80.5" height="80.5" fill-opacity="0"/><path fill="#F00" d="M276.665 160.756L267.918 160.756Q267.189 160.756 266.369 161.267Q265.549 161.777 265.148 162.506L265.148 162.506L257.057 176.501Q256.656 177.230 255.836 177.740Q255.016 178.251 254.323 178.251L254.323 178.251Q253.303 178.251 253.303 177.376L253.303 177.376Q253.303 176.975 253.558 176.501L253.558 176.501L261.649 162.506Q261.904 162.032 261.904 161.631L261.904 161.631Q261.904 160.756 260.920 160.756L260.920 160.756L252.173 160.756Q251.444 160.756 250.624 161.267Q249.804 161.777 249.403 162.506L249.403 162.506L246.378 167.754Q245.831 168.702 245.831 169.722L245.831 169.722Q245.831 170.305 246.050 170.633L246.050 170.633L250.861 178.870Q251.554 180 253.303 180L253.303 180L265.549 180Q266.278 180 267.080 179.490Q267.882 178.979 268.319 178.251L268.319 178.251L277.394 162.506Q277.649 162.032 277.649 161.631L277.649 161.631Q277.649 160.756 276.665 160.756L276.665 160.756Z"/></svg>