<svg width="480px" height="360px" xmlns="http://www.w3.org/2000/svg"><rect x="216" y="124" width="80.5" height="80.5" fill-opacity="0"/><path fill="#F00" d="M252.163 168.579L252.183 168.458L252.163 168.579ZM253.365 166.555L253.545 166.515Q253.525 166.535 253.465 166.545Q253.405 166.555 253.365 166.555L253.365 166.555ZM253.886 166.394L254.187 166.274Q254.066 166.374 253.986 166.394L253.986 166.394L253.886 166.394ZM258.956 169.500L259.777 166.374L254.086 166.374Q253.946 166.374 253.856 166.405Q253.766 166.435 253.726 166.435L253.726 166.435L253.746 166.435L253.525 166.535L253.505 166.535Q253.325 166.615 253.125 166.735L253.125 166.735L252.824 166.976L252.824 167.016Q252.604 167.236 252.483 167.376L252.483 167.376L252.503 167.356Q252.483 167.416 252.423 167.477L252.423 167.477L252.423 167.436Q252.383 167.497 252.343 167.577Q252.303 167.657 252.303 167.697L252.303 167.697L252.203 168.058Q252.183 168.118 252.183 168.208Q252.183 168.298 252.203 168.398L252.203 168.398L252.183 168.478Q252.183 168.478 252.203 168.518L252.203 168.518L252.203 168.739L252.223 168.699Q252.263 168.799 252.303 168.879Q252.343 168.959 252.403 169.019L252.403 169.019L252.644 169.320L252.644 169.300Q252.664 169.320 252.684 169.320Q252.704 169.320 252.704 169.340L252.704 169.340L252.684 169.300Q252.684 169.340 252.704 169.340Q252.724 169.340 252.744 169.360L252.744 169.360Q252.764 169.380 252.784 169.380L252.784 169.380Q252.824 169.420 252.894 169.420Q252.964 169.420 253.024 169.460L253.024 169.460L253.064 169.480Q253.064 169.500 253.145 169.500L253.145 169.500L258.956 169.500ZM253.806 154.332L253.826 154.332Q253.866 154.332 253.886 154.312L253.886 154.312Q253.866 154.312 253.846 154.322Q253.826 154.332 253.806 154.332L253.806 154.332ZM245.651 181.202L245.651 181.202Q245.691 181.242 245.731 181.242L245.731 181.242Q245.651 181.202 245.651 181.202ZM276.508 150.004L268.213 181.964L249.558 181.964Q249.297 181.964 248.907 181.924Q248.516 181.884 248.215 181.843L248.215 181.843L247.935 181.803Q247.634 181.803 247.073 181.663Q246.512 181.523 245.731 181.242L245.731 181.242Q245.691 181.242 245.681 181.252Q245.671 181.262 245.631 181.262L245.631 181.262Q245.570 181.222 245.510 181.182L245.510 181.182Q245.370 181.102 245.350 181.102L245.350 181.102L245.370 181.102Q245.009 180.902 244.518 180.661Q244.028 180.421 243.587 180.100L243.587 180.100L243.627 180.140Q243.326 179.960 242.835 179.589Q242.344 179.219 241.984 178.738L241.984 178.738L241.924 178.617Q241.904 178.597 241.884 178.597Q241.863 178.597 241.863 178.577L241.863 178.577L241.803 178.517Q241.783 178.477 241.743 178.437Q241.703 178.397 241.663 178.357L241.663 178.357L241.222 177.756Q241.142 177.636 241.022 177.495Q240.902 177.355 240.812 177.225Q240.721 177.095 240.661 176.984Q240.601 176.874 240.601 176.834L240.601 176.834Q240.541 176.754 240.501 176.684Q240.461 176.614 240.441 176.554L240.441 176.554Q239.499 174.730 239.299 172.666Q239.098 170.602 239.679 168.218L239.679 168.218L239.760 167.937Q239.880 167.477 240.010 167.066Q240.140 166.655 240.200 166.455L240.200 166.455L240.220 166.415Q240.281 166.174 240.411 165.863Q240.541 165.553 240.661 165.262Q240.781 164.972 240.892 164.771Q241.002 164.571 241.062 164.531L241.062 164.531L241.022 164.611Q241.423 163.850 241.803 163.168Q242.184 162.487 242.705 161.826L242.705 161.826L242.885 161.585Q243.887 160.283 245.120 159.171Q246.352 158.059 247.895 156.937L247.895 156.937Q248.276 156.676 248.606 156.486Q248.937 156.296 249.257 156.115L249.257 156.115L249.237 156.115Q249.297 156.075 249.418 156.015Q249.538 155.955 249.658 155.915L249.658 155.915L249.638 155.915Q249.678 155.875 249.748 155.845Q249.818 155.815 249.858 155.775L249.858 155.775L250.039 155.694L250.019 155.714Q250.560 155.374 251.221 155.113Q251.882 154.853 252.503 154.693L252.503 154.693Q252.443 154.693 252.463 154.673L252.463 154.673Q252.483 154.652 252.523 154.652L252.523 154.652Q252.584 154.652 252.604 154.632L252.604 154.632L252.584 154.652Q252.684 154.612 252.854 154.572Q253.024 154.532 253.125 154.492L253.125 154.492L253.105 154.492Q253.385 154.412 253.475 154.402Q253.565 154.392 253.806 154.332L253.806 154.332L253.786 154.352Q253.806 154.352 253.826 154.332L253.826 154.332L253.886 154.332Q253.906 154.332 253.916 154.322Q253.926 154.312 253.946 154.312L253.946 154.312L253.886 154.312Q253.986 154.292 254.026 154.252L254.026 154.252L255.148 154.071Q255.549 154.071 256.210 153.981Q256.872 153.891 257.453 153.891L257.453 153.891L263.023 153.891L264.025 150.004L276.508 150.004ZM260.979 172.225L252.684 172.225Q251.802 172.225 251.111 171.875Q250.420 171.524 249.989 170.943Q249.558 170.362 249.418 169.580Q249.277 168.799 249.518 167.937L249.518 167.937Q249.738 167.076 250.279 166.294Q250.820 165.513 251.552 164.922Q252.283 164.331 253.155 163.990Q254.026 163.649 254.908 163.649L254.908 163.649L263.204 163.649L260.979 172.225ZM266.189 179.239L273.082 152.729L266.049 152.729L265.027 156.636L256.731 156.636Q254.708 156.636 252.784 157.237L252.784 157.237L252.804 157.237Q250.941 157.818 249.267 158.910Q247.594 160.003 246.242 161.425Q244.889 162.848 243.917 164.521Q242.946 166.194 242.505 167.937L242.505 167.937Q242.044 169.681 242.144 171.344Q242.244 173.007 242.855 174.440Q243.466 175.872 244.569 176.964Q245.671 178.056 247.254 178.637L247.254 178.637L247.234 178.637Q248.055 178.918 248.947 179.078Q249.838 179.239 250.860 179.239L250.860 179.239L266.189 179.239Z"/></svg>